<svg xmlns="http://www.w3.org/2000/svg" viewBox="0 0 100 100">
  <defs>
    <linearGradient id="freightmasGradient" x1="0%" y1="0%" x2="100%" y2="100%">
      <stop offset="0%" style="stop-color:#2E86AB;stop-opacity:1" />
      <stop offset="100%" style="stop-color:#1B4F72;stop-opacity:1" />
    </linearGradient>
  </defs>
  
  <!-- Background circle -->
  <circle cx="50" cy="50" r="48" fill="url(#freightmasGradient)"/>
  
  <!-- Ship hull -->
  <path d="M20 58 L25 70 L75 70 L80 58 L70 58 L68 65 L32 65 L30 58 Z" fill="white"/>
  
  <!-- Ship cabin/bridge -->
  <rect x="55" y="42" width="15" height="16" rx="2" fill="white"/>
  
  <!-- Container stack -->
  <rect x="28" y="48" width="12" height="10" rx="1" fill="white"/>
  <rect x="42" y="48" width="12" height="10" rx="1" fill="white"/>
  <rect x="35" y="38" width="12" height="10" rx="1" fill="white"/>
  
  <!-- Mast/antenna -->
  <rect x="61" y="32" width="3" height="10" fill="white"/>
  
  <!-- Wave accent -->
  <path d="M15 75 Q25 72 35 75 Q45 78 55 75 Q65 72 75 75 Q85 78 85 75" 
        stroke="rgba(255,255,255,0.5)" stroke-width="2" fill="none"/>
</svg>