<svg xmlns="http://www.w3.org/2000/svg" viewBox="0 0 100 100">
  <defs>
    <linearGradient id="freightmasGradient4" x1="0%" y1="0%" x2="100%" y2="100%">
      <stop offset="0%" style="stop-color:#1B3A5F;stop-opacity:1" />
      <stop offset="100%" style="stop-color:#243B55;stop-opacity:1" />
    </linearGradient>
  </defs>
  
  <!-- Square background with rounded corners -->
  <rect x="2" y="2" width="96" height="96" rx="16" ry="16" fill="url(#freightmasGradient4)"/>
  
  <!-- Ship hull - orange, moved up -->
  <path d="M12 52 L20 72 L80 72 L88 52 L76 52 L73 65 L27 65 L24 52 Z" fill="#F26522"/>
  
  <!-- Ship cabin/bridge - white, moved up -->
  <rect x="60" y="28" width="20" height="24" rx="3" fill="white"/>
  
  <!-- Container stack - white, moved up -->
  <rect x="18" y="34" width="18" height="18" rx="2" fill="white"/>
  <rect x="38" y="34" width="18" height="18" rx="2" fill="white"/>
  <rect x="28" y="16" width="18" height="18" rx="2" fill="white"/>
  
  <!-- Mast/antenna - white, moved up -->
  <rect x="68" y="12" width="4" height="16" fill="white"/>
  
  <!-- Wave accent - orange -->
  <path d="M8 82 Q22 77 36 82 Q50 87 64 82 Q78 77 92 82" 
        stroke="#F26522" stroke-width="3" fill="none" stroke-linecap="round"/>
</svg>