<svg xmlns="http://www.w3.org/2000/svg" viewBox="0 0 100 100">
  <defs>
    <linearGradient id="freightmasGradient3" x1="0%" y1="0%" x2="100%" y2="100%">
      <stop offset="0%" style="stop-color:#1B3A5F;stop-opacity:1" />
      <stop offset="100%" style="stop-color:#243B55;stop-opacity:1" />
    </linearGradient>
  </defs>
  
  <!-- Square background with rounded corners -->
  <rect x="2" y="2" width="96" height="96" rx="16" ry="16" fill="url(#freightmasGradient3)"/>
  
  <!-- Ship hull - white, larger and centered -->
  <path d="M12 62 L20 82 L80 82 L88 62 L76 62 L73 75 L27 75 L24 62 Z" fill="white"/>
  
  <!-- Ship cabin/bridge - white, enlarged -->
  <rect x="60" y="38" width="20" height="24" rx="3" fill="white"/>
  
  <!-- Container stack - white, enlarged and centered -->
  <rect x="18" y="44" width="18" height="18" rx="2" fill="white"/>
  <rect x="38" y="44" width="18" height="18" rx="2" fill="white"/>
  <rect x="28" y="26" width="18" height="18" rx="2" fill="white"/>
  
  <!-- Mast/antenna - white -->
  <rect x="68" y="22" width="4" height="16" fill="white"/>
  
  <!-- Wave accent - white -->
  <path d="M8 88 Q22 83 36 88 Q50 93 64 88 Q78 83 92 88" 
        stroke="white" stroke-width="3" fill="none" stroke-linecap="round" opacity="0.7"/>
</svg>