<svg xmlns="http://www.w3.org/2000/svg" viewBox="0 0 100 100">
  <defs>
    <linearGradient id="freightmasGradient2" x1="0%" y1="0%" x2="100%" y2="100%">
      <stop offset="0%" style="stop-color:#1B3A5F;stop-opacity:1" />
      <stop offset="100%" style="stop-color:#243B55;stop-opacity:1" />
    </linearGradient>
  </defs>
  
  <!-- Square background with rounded corners -->
  <rect x="2" y="2" width="96" height="96" rx="16" ry="16" fill="url(#freightmasGradient2)"/>
  
  <!-- Ship hull - orange accent -->
  <path d="M18 60 L24 74 L76 74 L82 60 L72 60 L70 68 L30 68 L28 60 Z" fill="#F26522"/>
  
  <!-- Ship cabin/bridge - white -->
  <rect x="58" y="42" width="16" height="18" rx="2" fill="white"/>
  
  <!-- Container stack - white -->
  <rect x="26" y="48" width="14" height="12" rx="1" fill="white"/>
  <rect x="42" y="48" width="14" height="12" rx="1" fill="white"/>
  <rect x="34" y="36" width="14" height="12" rx="1" fill="white"/>
  
  <!-- Mast/antenna -->
  <rect x="64" y="30" width="3" height="12" fill="white"/>
  
  <!-- Wave accent - orange -->
  <path d="M12 80 Q24 76 36 80 Q48 84 60 80 Q72 76 84 80 Q88 82 88 80" 
        stroke="#F26522" stroke-width="3" fill="none" stroke-linecap="round"/>
</svg>